Coordinates
version=1
nRows=12
nColumns=24
inDegrees=yes

Units are S.I. units (second, meters, Newtons, ...)
Angles are in degrees.

endheader
time	pelvis_tilt	pelvis_list	pelvis_rotation	pelvis_tx	pelvis_ty	pelvis_tz	hip_flexion_r	hip_adduction_r	hip_rotation_r	knee_angle_r	ankle_angle_r	subtalar_angle_r	mtp_angle_r	hip_flexion_l	hip_adduction_l	hip_rotation_l	knee_angle_l	ankle_angle_l	subtalar_angle_l	mtp_angle_l	lumbar_extension	lumbar_bending	lumbar_rotation
      4.04000000	     -9.86243754	     -2.21706261	     -3.63617994	     -1.32100071	     -0.00332707	     -0.63141164	      3.66836622	      6.58113510	     -6.47217907	     -5.12999514	      4.31160150	     -3.93568371	     10.50061855	     34.39654003	     -7.87101443	    -18.33443064	    -45.80499284	     -0.66347257	    -13.55166836	      0.72221592	      6.20426456	      5.00615770	      1.45904154
      4.04500000	     -9.92918604	     -2.19168703	     -3.65641762	     -1.31595550	     -0.00384052	     -0.63139176	      3.32964568	      6.53976434	     -6.72191356	     -4.97321027	      4.53040399	     -3.58987536	     10.99181145	     34.58712336	     -7.72042942	    -18.60533518	    -44.14531714	     -0.17459498	    -13.15442344	     -0.47331406	      6.21598179	      4.95413643	      1.55490529
      4.05000000	    -10.13991218	     -2.20249393	     -3.77750380	     -1.31098286	     -0.00452986	     -0.63121623	      3.16395254	      6.56900634	     -6.69611581	     -4.86201368	      4.70604938	     -3.48022050	     11.07265452	     34.89455226	     -7.68557844	    -18.95837867	    -42.40476501	      0.01681154	    -12.82115730	     -0.57520639	      6.36502734	      4.95976689	      1.76436486
      4.05500000	    -10.28208951	     -2.20585105	     -3.87729608	     -1.30597157	     -0.00515636	     -0.63110340	      2.92446403	      6.57615420	     -6.74022129	     -4.75595327	      4.89683497	     -3.27548594	     11.17579229	     35.08553976	     -7.61619388	    -19.31548029	    -40.59616049	      0.24283043	    -12.32988557	     -0.65050779	      6.44322906	      4.95240634	      1.94462635
      4.06000000	    -10.41268580	     -2.21070423	     -3.96089013	     -1.30093632	     -0.00578970	     -0.63105184	      2.67372413	      6.57751443	     -6.82615451	     -4.65328194	      5.08789673	     -3.03852791	     11.29860287	     35.23173085	     -7.52346569	    -19.66227932	    -38.73424720	      0.47131811	    -11.71198728	     -0.64315005	      6.50731781	      4.94650272	      2.09827322
      4.06500000	    -10.53815987	     -2.22039618	     -4.03000498	     -1.29588193	     -0.00643929	     -0.63103326	      2.42291201	      6.57872711	     -6.93200560	     -4.56446061	      5.27825298	     -2.78543999	     11.43858028	     35.34278308	     -7.41616516	    -20.00205361	    -36.82777757	      0.69639142	    -10.96727683	     -0.50289283	      6.56914099	      4.94329001	      2.23747553
      4.07000000	    -10.66257976	     -2.23153809	     -4.08890343	     -1.29079375	     -0.00710903	     -0.63105230	      2.17211259	      6.57646617	     -7.04739580	     -4.48279564	      5.46827900	     -2.52420138	     11.58557495	     35.42358143	     -7.29231514	    -20.33444761	    -34.88388451	      0.91654303	    -10.10149406	     -0.19955471	      6.63539787	      4.93889473	      2.36010679
      4.07500000	    -10.74919814	     -2.24429086	     -4.15823889	     -1.28572720	     -0.00776189	     -0.63109626	      1.90270638	      6.56665760	     -7.19147467	     -4.44232508	      5.67724315	     -2.21851854	     11.77906763	     35.43104646	     -7.15801852	    -20.64463388	    -32.90215701	      1.12350482	     -9.12239006	      0.39445299	      6.64454697	      4.93786035	      2.53096993
      4.08000000	    -10.76943348	     -2.21319421	     -4.18980878	     -1.28050447	     -0.00833512	     -0.63120221	      1.53536040	      6.48972645	     -7.39388390	     -4.35603623	      5.87595039	     -1.79503878	     12.24944264	     35.30559113	     -6.93885501	    -20.97520783	    -30.78206676	      0.89682124	     -8.36991357	      2.22125406	      6.61933393	      4.87842221	      2.60820701
      4.08500000	    -10.97385900	     -2.28833078	     -4.22684604	     -1.27537446	     -0.00917197	     -0.63127448	      1.38481194	      6.55849492	     -7.48165596	     -4.31670116	      6.00142426	     -1.63115135	     12.29534165	     35.45120138	     -6.85960411	    -21.27383830	    -28.88138467	      1.19083575	     -7.12152549	      2.70797395	      6.77167595	      4.93300575	      2.67311372
      4.09000000	    -10.93160446	     -2.23912196	     -4.28927610	     -1.27014381	     -0.00969402	     -0.63139042	      0.98013968	      6.45240897	     -7.63363502	     -4.30089477	      6.23013550	     -1.22540496	     12.50843280	     35.20766398	     -6.61906320	    -21.62611527	    -26.74416582	      0.92681212	     -6.24957759	      4.87831701	      6.66367120	      4.85880985	      2.83707895
      4.09500000	    -11.00219531	     -2.22682488	     -4.36952818	     -1.26486647	     -0.01035007	     -0.63153405	      0.68706957	      6.38944821	     -7.65382668	     -4.28046009	      6.41648116	     -0.87567484	     12.60669320	     35.11486734	     -6.43492294	    -21.98334104	    -24.75646188	      0.98424128	     -5.15174259	      6.17609249	      6.69018725	      4.83867203	      2.95106132
